<svg width="55" height="21" viewBox="0 0 55 21" fill="none" xmlns="http://www.w3.org/2000/svg">
<g clip-path="url(#clip0_9_2153)">
<path fill-rule="evenodd" clip-rule="evenodd" d="M51.5564 12.706C51.108 13.139 50.9043 13.763 51.0093 14.375L51.6866 18.291C51.8976 19.51 50.9211 20.5 49.8134 20.5C49.5215 20.5 49.2201 20.431 48.9282 20.279L45.3845 18.43C45.1073 18.286 44.8038 18.214 44.4993 18.214C44.1959 18.214 43.8924 18.286 43.6152 18.43L40.0715 20.279C39.7796 20.431 39.4782 20.5 39.1863 20.5C38.0786 20.5 37.1021 19.51 37.3131 18.291L37.9904 14.375C38.0954 13.763 37.8917 13.139 37.4433 12.706L34.5758 9.933C33.4481 8.842 34.0707 6.941 35.6289 6.716L39.5916 6.145C40.2111 6.056 40.7466 5.67001 41.0228 5.11301L42.7952 1.55099C43.1438 0.849995 43.8221 0.5 44.4993 0.5C45.1776 0.5 45.8559 0.849995 46.2045 1.55099L47.9769 5.11301C48.2531 5.67001 48.7886 6.056 49.4081 6.145L53.3708 6.716C54.929 6.941 55.5516 8.842 54.4239 9.933L51.5564 12.706Z" fill="#FFB930"/>
</g>
<path d="M9.89746 12.2188V14.2051H0.677734L0.554688 12.667L5.88965 4.20312H7.90234L5.72266 7.85059L3.06836 12.2188H9.89746ZM8.44727 4.20312V17H5.91602V4.20312H8.44727ZM11.4971 15.7783C11.4971 15.4033 11.626 15.0898 11.8838 14.8379C12.1475 14.5859 12.4961 14.46 12.9297 14.46C13.3633 14.46 13.709 14.5859 13.9668 14.8379C14.2305 15.0898 14.3623 15.4033 14.3623 15.7783C14.3623 16.1533 14.2305 16.4668 13.9668 16.7188C13.709 16.9707 13.3633 17.0967 12.9297 17.0967C12.4961 17.0967 12.1475 16.9707 11.8838 16.7188C11.626 16.4668 11.4971 16.1533 11.4971 15.7783ZM23.0195 4.07129H23.3887V6.09277H23.2393C22.5713 6.09277 21.9766 6.19238 21.4551 6.3916C20.9336 6.59082 20.4912 6.875 20.1279 7.24414C19.7705 7.60742 19.4951 8.04688 19.3018 8.5625C19.1143 9.07812 19.0205 9.65527 19.0205 10.2939V12.4209C19.0205 12.8779 19.0645 13.2822 19.1523 13.6338C19.2461 13.9795 19.3779 14.2695 19.5479 14.5039C19.7236 14.7324 19.9287 14.9053 20.1631 15.0225C20.3975 15.1338 20.6611 15.1895 20.9541 15.1895C21.2295 15.1895 21.4785 15.1309 21.7012 15.0137C21.9297 14.8965 22.123 14.7324 22.2812 14.5215C22.4453 14.3047 22.5684 14.0527 22.6504 13.7656C22.7383 13.4727 22.7822 13.1533 22.7822 12.8076C22.7822 12.4619 22.7383 12.1426 22.6504 11.8496C22.5684 11.5566 22.4453 11.3047 22.2812 11.0938C22.1172 10.877 21.918 10.71 21.6836 10.5928C21.4492 10.4756 21.1855 10.417 20.8926 10.417C20.4941 10.417 20.1426 10.5107 19.8379 10.6982C19.5391 10.8799 19.3047 11.1143 19.1348 11.4014C18.9648 11.6885 18.874 11.9902 18.8623 12.3066L18.0977 11.8145C18.1152 11.3633 18.209 10.9355 18.3789 10.5312C18.5547 10.127 18.7949 9.76953 19.0996 9.45898C19.4102 9.14258 19.7822 8.89648 20.2158 8.7207C20.6494 8.53906 21.1387 8.44824 21.6836 8.44824C22.2812 8.44824 22.8057 8.5625 23.2568 8.79102C23.7139 9.01953 24.0947 9.33301 24.3994 9.73145C24.7041 10.1299 24.9326 10.5898 25.085 11.1113C25.2373 11.6328 25.3135 12.1895 25.3135 12.7812C25.3135 13.4023 25.2109 13.9795 25.0059 14.5127C24.8066 15.0459 24.5166 15.5117 24.1357 15.9102C23.7607 16.3086 23.3096 16.6191 22.7822 16.8418C22.2549 17.0645 21.6631 17.1758 21.0068 17.1758C20.3271 17.1758 19.709 17.0527 19.1523 16.8066C18.6016 16.5547 18.127 16.2031 17.7285 15.752C17.3301 15.3008 17.0225 14.7646 16.8057 14.1436C16.5947 13.5225 16.4893 12.8428 16.4893 12.1045V11.1201C16.4893 10.0889 16.6387 9.14551 16.9375 8.29004C17.2422 7.42871 17.6787 6.68457 18.2471 6.05762C18.8154 5.4248 19.501 4.93555 20.3037 4.58984C21.1064 4.24414 22.0117 4.07129 23.0195 4.07129Z" fill="#E66767"/>
<defs>
<clipPath id="clip0_9_2153">
<rect width="21" height="21" fill="white" transform="translate(34)"/>
</clipPath>
</defs>
</svg>
